<?xml version="1.0" standalone="no"?>
<!DOCTYPE svg PUBLIC "-//W3C//DTD SVG 20010904//EN"
 "http://www.w3.org/TR/2001/REC-SVG-20010904/DTD/svg10.dtd">
<svg version="1.0" xmlns="http://www.w3.org/2000/svg"
 width="500.000000pt" height="500.000000pt" viewBox="0 0 500.000000 500.000000"
 preserveAspectRatio="xMidYMid meet">

<g transform="translate(0.000000,500.000000) scale(0.100000,-0.100000)"
fill="#000000" stroke="none">
<path d="M2293 4279 c-679 -79 -1259 -545 -1484 -1194 l-39 -110 -40 -3 -40
-3 0 -460 0 -459 40 0 c22 0 40 -4 40 -10 0 -5 -22 -10 -50 -10 l-50 0 -2 318
-3 317 -253 3 c-198 2 -252 0 -252 -10 0 -7 42 -69 93 -138 51 -69 109 -148
129 -175 l36 -50 -133 -180 c-73 -99 -131 -183 -128 -187 2 -5 149 -8 326 -8
l322 0 24 -62 c181 -473 558 -847 1041 -1033 326 -126 723 -148 1075 -59 554
141 1021 556 1226 1091 l24 63 322 0 c177 0 324 3 327 8 4 7 -26 49 -206 293
l-56 76 133 179 c73 98 129 182 126 187 -4 4 -120 6 -257 5 l-249 -3 -3 -317
-2 -318 -50 0 c-28 0 -50 5 -50 10 0 6 18 10 40 10 l40 0 0 459 0 460 -40 3
-41 3 -30 90 c-176 527 -595 950 -1120 1129 -244 83 -533 115 -786 85z"/>
</g>
</svg>
