<?xml version="1.0" standalone="no"?>
<!DOCTYPE svg PUBLIC "-//W3C//DTD SVG 20010904//EN"
 "http://www.w3.org/TR/2001/REC-SVG-20010904/DTD/svg10.dtd">
<svg version="1.0" xmlns="http://www.w3.org/2000/svg"
 width="500.000000pt" height="500.000000pt" viewBox="0 0 500.000000 500.000000"
 preserveAspectRatio="xMidYMid meet">

<g transform="translate(0.000000,500.000000) scale(0.100000,-0.100000)"
fill="#000000" stroke="none">
<path d="M2335 4279 c-411 -39 -796 -220 -1091 -514 -201 -201 -349 -436 -438
-700 l-34 -100 -41 -3 -41 -3 0 -450 0 -449 40 0 c29 0 40 -4 40 -15 0 -12
-13 -15 -55 -15 l-55 0 0 315 0 315 -251 0 c-200 0 -249 -3 -242 -12 32 -42
232 -317 243 -334 12 -20 3 -35 -119 -200 l-131 -179 323 -3 324 -2 23 -63
c28 -77 96 -214 151 -304 212 -347 562 -624 949 -754 854 -285 1767 96 2174
909 24 48 54 115 66 149 l23 63 324 2 325 3 -132 178 c-72 98 -130 184 -127
191 3 6 45 66 94 131 48 66 106 144 127 173 l38 52 -251 0 -251 0 0 -315 0
-315 -55 0 c-42 0 -55 3 -55 15 0 11 11 15 40 15 l40 0 0 449 0 450 -41 3 -41
3 -34 100 c-203 599 -718 1058 -1329 1183 -183 38 -351 48 -530 31z m454 -83
c551 -101 1001 -437 1250 -934 47 -95 111 -259 111 -288 0 -12 -231 -14 -1650
-14 -1419 0 -1650 2 -1650 14 0 8 14 54 31 103 187 530 641 945 1189 1087 83
22 128 30 275 50 63 9 364 -3 444 -18z m190 -1481 c16 -8 31 -21 35 -30 8 -21
-9 -61 -30 -69 -25 -9 -29 0 -13 30 12 23 12 27 -6 40 -36 27 -105 -7 -105
-51 0 -27 20 -45 86 -78 28 -14 64 -41 79 -59 23 -27 26 -38 22 -73 -8 -57
-61 -105 -117 -105 -49 0 -90 20 -119 56 -40 51 -13 63 34 14 54 -56 141 -46
164 20 17 50 0 74 -79 116 -83 43 -103 67 -98 120 2 31 10 43 37 61 39 27 71
29 110 8z m-866 -7 c2 -7 28 -78 57 -158 29 -80 55 -148 59 -152 3 -4 33 65
65 153 51 140 75 183 91 167 3 -2 21 -83 40 -179 20 -96 38 -182 41 -191 5
-18 -20 -26 -30 -10 -3 5 -20 79 -37 166 l-32 157 -60 -166 c-39 -108 -64
-165 -73 -165 -17 0 -34 38 -94 210 l-44 125 -31 -151 c-16 -83 -36 -159 -44
-168 -17 -20 -54 -21 -70 -2 -15 18 1 30 29 21 15 -5 21 -1 25 17 3 13 19 88
35 168 36 172 35 170 54 170 7 0 16 -6 19 -12z m455 -165 l2 -172 88 -3 c73
-3 87 -6 90 -20 3 -16 -7 -18 -107 -18 l-111 0 0 196 c0 181 1 195 18 192 15
-3 17 -21 20 -175z m1592 -492 c0 -5 -16 -55 -36 -112 -175 -504 -578 -901
-1083 -1069 -360 -120 -722 -120 -1082 0 -505 168 -908 565 -1083 1069 -20 57
-36 107 -36 112 0 5 679 9 1660 9 981 0 1660 -4 1660 -9z"/>
<path d="M2852 3938 c-21 -21 -13 -53 23 -88 41 -40 46 -75 11 -91 -29 -13
-61 1 -71 31 -3 11 -11 20 -16 20 -17 0 -9 -26 14 -48 44 -42 117 -19 117 37
0 12 -16 37 -35 57 -39 39 -44 59 -17 73 25 13 46 -2 37 -28 -8 -26 10 -28 24
-2 20 37 -56 70 -87 39z"/>
<path d="M2374 3924 c3 -9 6 -42 6 -75 0 -33 4 -59 10 -59 6 0 10 27 10 60 0
50 3 61 21 70 34 19 49 -4 49 -71 0 -33 4 -59 10 -59 6 0 10 26 10 59 0 62 14
86 47 79 14 -3 19 -16 23 -68 4 -58 7 -65 28 -68 12 -2 22 1 22 7 0 6 -7 11
-15 11 -11 0 -15 13 -15 53 0 29 -5 58 -12 65 -15 15 -60 16 -75 1 -8 -8 -13
-8 -17 0 -9 15 -59 14 -74 -1 -9 -9 -12 -9 -12 0 0 7 -5 12 -11 12 -6 0 -8 -7
-5 -16z"/>
<path d="M2246 3919 c-46 -7 -66 -30 -66 -74 0 -46 25 -75 65 -75 19 0 36 4
39 9 3 4 16 6 30 4 13 -3 27 0 30 6 4 7 -1 11 -12 11 -16 0 -21 9 -26 53 -9
69 -13 74 -60 66z m39 -59 c7 -53 -4 -80 -33 -80 -49 0 -72 85 -30 114 41 29
55 21 63 -34z"/>
<path d="M2661 3904 c-25 -32 -27 -86 -5 -108 16 -17 94 -23 94 -8 0 5 -14 7
-30 4 -32 -5 -60 11 -60 34 0 10 12 14 38 14 43 0 62 14 62 47 0 46 -67 57
-99 17z m84 -13 c9 -16 -26 -43 -49 -37 -12 3 -24 6 -28 6 -14 0 -8 20 12 40
16 16 25 18 40 10 10 -5 21 -14 25 -19z"/>
<path d="M2076 3879 c-39 -11 -66 -38 -66 -65 0 -35 20 -71 45 -82 13 -6 25
-23 28 -41 11 -54 87 -52 87 3 0 23 -48 177 -59 187 -3 4 -19 3 -35 -2z m39
-57 c11 -34 10 -44 -2 -62 -32 -45 -94 5 -79 64 6 25 39 48 60 42 5 -1 15 -21
21 -44z m35 -125 c0 -24 -4 -28 -22 -25 -29 4 -35 34 -12 59 21 23 34 10 34
-34z"/>
<path d="M1900 3870 c0 -5 7 -10 15 -10 8 0 15 5 15 10 0 6 -7 10 -15 10 -8 0
-15 -4 -15 -10z"/>
<path d="M1930 3817 c0 -8 11 -40 25 -71 18 -41 30 -56 45 -56 25 0 26 16 3
22 -11 3 -26 26 -37 56 -18 52 -36 76 -36 49z"/>
<path d="M3002 3823 c-16 -6 -42 -56 -42 -82 0 -26 46 -61 79 -60 26 1 26 1
-4 11 -41 15 -55 27 -55 50 0 15 4 18 18 13 42 -16 69 -16 85 0 21 21 21 39 1
59 -15 15 -55 20 -82 9z m68 -18 c28 -34 -16 -59 -61 -34 -20 10 -20 11 -3 30
21 23 47 25 64 4z"/>
<path d="M1795 3754 c-13 -14 -29 -23 -34 -19 -6 3 -11 2 -11 -4 0 -5 4 -12
10 -16 5 -3 21 -28 36 -55 15 -28 31 -50 36 -50 13 0 10 10 -18 57 -24 42 -25
46 -10 69 24 36 43 30 78 -26 19 -31 38 -50 49 -50 11 0 19 5 19 10 0 6 -6 10
-14 10 -7 0 -27 23 -44 50 -36 58 -60 64 -97 24z"/>
<path d="M3150 3763 c0 -9 -12 -36 -26 -60 -14 -24 -24 -49 -21 -56 2 -7 17
11 33 40 30 55 50 67 79 51 13 -8 16 -7 13 3 -3 8 -17 15 -31 17 -15 2 -27 8
-27 13 0 5 -4 9 -10 9 -5 0 -10 -7 -10 -17z"/>
<path d="M1650 3735 c0 -9 5 -15 11 -13 6 2 11 8 11 13 0 5 -5 11 -11 13 -6 2
-11 -4 -11 -13z"/>
<path d="M3255 3720 c-3 -5 -4 -10 -2 -10 3 0 -3 -28 -14 -62 -22 -73 -22 -78
-9 -78 16 0 120 81 120 92 0 10 -6 7 -71 -41 l-32 -25 6 25 c4 13 10 43 13 67
6 40 2 53 -11 32z"/>
<path d="M1690 3690 c0 -16 63 -109 78 -115 16 -6 32 2 32 17 0 5 -7 8 -15 4
-10 -4 -27 12 -52 49 -37 56 -43 63 -43 45z"/>
<path d="M1560 3661 c0 -4 14 -41 30 -81 17 -40 30 -77 30 -82 0 -5 -36 10
-79 34 -44 23 -83 39 -87 35 -4 -3 14 -43 40 -88 37 -63 45 -84 35 -90 -17
-10 -4 -23 16 -16 23 9 19 26 -24 97 -22 36 -38 67 -36 69 2 1 37 -16 79 -38
44 -25 77 -37 81 -31 3 5 -8 42 -25 82 -16 40 -30 76 -30 81 0 4 26 -12 58
-36 71 -54 82 -61 82 -49 0 11 -145 122 -160 122 -5 0 -10 -4 -10 -9z"/>
<path d="M3357 3599 c-9 -5 -24 -23 -32 -39 -25 -48 8 -100 62 -100 13 0 8 6
-15 20 -37 23 -50 46 -34 62 9 9 16 7 29 -4 42 -36 93 -28 93 16 0 45 -58 71
-103 45z m67 -12 c21 -16 18 -50 -5 -55 -9 -1 -27 6 -40 18 -24 20 -24 20 -5
35 24 18 27 18 50 2z"/>
<path d="M3468 3469 c-60 -63 -63 -88 -4 -30 37 36 49 42 70 37 14 -3 26 -11
26 -17 0 -6 5 -7 10 -4 16 10 -8 35 -32 35 -14 0 -18 5 -14 15 9 26 -7 15 -56
-36z"/>
<path d="M2670 2020 c-18 -18 -20 -33 -20 -170 0 -93 4 -150 10 -150 6 0 10
32 10 75 0 68 2 75 19 75 11 0 23 5 26 10 4 6 -5 10 -19 10 -22 0 -26 4 -26
30 0 25 4 30 24 30 33 0 56 25 56 60 0 47 -46 64 -80 30z m55 -34 c0 -24 -5
-31 -27 -37 -26 -7 -28 -5 -28 20 0 31 18 53 40 49 9 -2 15 -14 15 -32z"/>
<path d="M2565 2019 c-10 -15 3 -25 16 -12 7 7 7 13 1 17 -6 3 -14 1 -17 -5z"/>
<path d="M3000 2020 c-15 -3 -29 -17 -34 -33 -12 -32 9 -59 67 -88 29 -15 37
-25 37 -47 0 -15 -5 -33 -12 -40 -19 -19 -66 -14 -89 9 -11 11 -24 18 -27 14
-12 -12 48 -55 77 -55 36 0 71 34 71 69 0 30 -20 53 -72 80 -36 20 -47 51 -24
70 23 19 51 9 50 -17 0 -13 5 -22 13 -22 10 0 13 9 11 26 -3 30 -30 44 -68 34z"/>
<path d="M1165 2008 c-2 -7 -9 -40 -15 -73 -21 -111 -29 -135 -45 -129 -8 4
-15 1 -15 -5 0 -18 38 -13 48 7 5 9 15 50 22 90 7 39 16 72 19 72 4 0 20 -39
37 -87 18 -49 37 -88 44 -88 7 0 28 40 46 88 18 49 34 91 36 93 3 2 12 -39 22
-91 10 -52 23 -95 28 -95 6 0 8 10 5 23 -3 12 -14 64 -23 115 -10 51 -22 91
-28 89 -5 -2 -26 -48 -47 -103 -34 -89 -38 -97 -47 -74 -5 14 -22 60 -38 103
-28 74 -40 91 -49 65z"/>
<path d="M2400 1905 l0 -115 65 0 c37 0 65 4 65 10 0 6 -25 10 -55 10 l-55 0
0 105 c0 63 -4 105 -10 105 -6 0 -10 -45 -10 -115z"/>
<path d="M1990 1908 c0 -96 4 -111 30 -120 18 -6 50 9 50 24 0 7 -5 6 -15 -2
-30 -25 -45 -4 -45 65 0 63 1 65 25 65 14 0 25 5 25 10 0 6 -11 10 -25 10 -18
0 -25 5 -25 20 0 11 -4 20 -10 20 -6 0 -10 -37 -10 -92z"/>
<path d="M1475 1948 c-32 -18 -44 -40 -45 -79 0 -87 122 -114 156 -34 12 31
12 39 0 70 -20 48 -69 67 -111 43z m79 -24 c42 -41 19 -115 -37 -122 -55 -7
-90 76 -50 120 20 22 66 24 87 2z"/>
<path d="M1681 1944 c-19 -14 -25 -14 -32 -3 -13 21 -15 9 -11 -73 4 -91 22
-106 22 -20 0 66 21 96 62 90 21 -3 23 -9 28 -70 5 -72 18 -95 47 -83 16 6 16
8 -4 16 -21 7 -23 15 -23 73 0 54 -3 67 -19 76 -27 14 -43 13 -70 -6z"/>
<path d="M1856 1944 c-25 -25 -16 -46 32 -72 26 -15 42 -30 42 -43 0 -23 -40
-35 -68 -20 -13 7 -23 7 -26 2 -4 -5 10 -15 29 -21 30 -10 40 -9 61 5 35 23
28 53 -21 86 -49 34 -52 54 -7 54 17 0 31 4 29 10 -6 17 -54 17 -71 -1z"/>
<path d="M2143 1945 c-51 -36 -47 -135 6 -153 30 -11 78 -5 87 10 4 6 -8 7
-29 3 -38 -7 -77 7 -77 29 0 9 16 17 40 21 67 11 88 47 50 85 -24 24 -48 25
-77 5z m73 -27 c8 -28 -18 -48 -64 -48 -30 0 -33 2 -26 23 10 35 24 47 55 47
20 0 30 -6 35 -22z"/>
<path d="M2323 1945 c-16 -11 -22 -12 -26 -2 -9 25 -12 -1 -9 -75 4 -93 22
-105 22 -15 0 68 10 87 48 87 13 0 20 4 17 10 -9 14 -27 12 -52 -5z"/>
<path d="M2572 1879 c-2 -88 6 -109 37 -89 9 5 7 9 -8 13 -18 4 -21 14 -24 83
l-3 79 -2 -86z"/>
<path d="M2795 1935 c-35 -34 -37 -96 -4 -129 21 -22 83 -26 103 -6 8 9 2 10
-25 5 -40 -7 -79 7 -79 29 0 9 16 17 40 21 67 11 88 47 50 85 -27 27 -56 25
-85 -5z m84 -19 c4 -25 -24 -46 -61 -46 -23 0 -28 4 -28 23 0 32 20 48 55 45
20 -2 31 -9 34 -22z"/>
<path d="M3167 1940 c-79 -62 -14 -186 76 -145 l32 14 -41 -6 c-35 -4 -46 -1
-65 18 l-23 23 44 9 c71 13 96 59 52 95 -22 17 -45 15 -75 -8z m77 -23 c15
-24 -15 -47 -61 -47 -37 0 -42 13 -17 48 19 27 61 27 78 -1z"/>
<path d="M3314 1940 c3 -14 6 -53 6 -87 0 -35 4 -63 10 -63 6 0 10 28 10 63 0
69 10 87 49 87 20 0 22 3 13 12 -10 10 -19 10 -41 -3 -26 -15 -29 -15 -40 0
-10 14 -11 12 -7 -9z"/>
<path d="M3432 1950 c14 -58 54 -160 63 -160 6 0 22 33 34 73 13 39 26 78 28
85 3 6 1 12 -4 12 -5 0 -20 -32 -32 -72 l-24 -72 -22 63 c-21 58 -53 110 -43
71z"/>
<path d="M3621 1943 c-48 -40 -43 -133 7 -151 31 -11 79 -5 88 10 4 6 -8 7
-29 3 -38 -7 -77 7 -77 29 0 9 16 17 40 21 67 11 88 47 50 85 -25 25 -51 25
-79 3z m75 -25 c8 -27 -18 -48 -62 -48 -28 0 -31 3 -27 23 9 34 23 47 54 47
20 0 30 -6 35 -22z"/>
<path d="M3803 1945 c-16 -11 -22 -12 -26 -2 -9 25 -12 -1 -9 -75 4 -93 22
-105 22 -15 0 68 10 87 48 87 13 0 20 4 17 10 -9 14 -27 12 -52 -5z"/>
<path d="M2523 1630 c23 -15 21 -29 -8 -52 -36 -28 -32 -48 8 -47 30 2 30 2 5
6 -35 5 -35 16 -2 37 30 21 30 59 -1 64 -18 2 -18 2 -2 -8z"/>
<path d="M2586 1624 c-30 -29 -10 -94 28 -94 17 0 36 21 35 40 0 9 -4 6 -9 -7
-16 -39 -60 -22 -60 22 0 44 44 61 60 23 5 -14 9 -17 9 -7 1 18 -18 39 -35 39
-7 0 -20 -7 -28 -16z"/>
<path d="M2690 1630 c-9 -6 -10 -10 -3 -10 7 0 13 -20 16 -47 3 -47 3 -47 5
10 1 31 1 57 0 57 -2 0 -10 -5 -18 -10z"/>
<path d="M2747 1633 c-3 -4 -8 -27 -12 -50 -6 -37 -4 -42 15 -48 29 -9 56 16
45 42 -4 10 -8 27 -9 38 -1 20 -30 33 -39 18z m33 -18 c0 -8 -7 -15 -15 -15
-8 0 -15 7 -15 15 0 8 7 15 15 15 8 0 15 -7 15 -15z m0 -40 c13 -16 6 -35 -15
-35 -18 0 -28 17 -21 35 7 19 20 19 36 0z"/>
<path d="M2350 1586 c0 -47 14 -66 33 -47 9 9 8 11 -5 6 -15 -6 -18 -2 -18 23
0 17 4 32 9 34 5 2 3 9 -5 16 -12 11 -14 6 -14 -32z"/>
<path d="M2200 1590 c-15 -28 4 -60 33 -59 21 2 21 2 -1 6 -21 4 -23 9 -20 39
5 39 3 42 -12 14z"/>
<path d="M2245 1601 c4 -8 2 -17 -6 -22 -9 -6 -10 -9 -2 -9 19 0 27 21 13 33
-10 9 -11 9 -5 -2z"/>
<path d="M2280 1596 c0 -8 9 -17 19 -21 11 -3 22 -14 24 -23 4 -16 5 -16 6 0
0 10 -8 22 -19 28 -11 6 -18 15 -15 21 4 5 1 9 -4 9 -6 0 -11 -6 -11 -14z"/>
<path d="M2287 1539 c7 -7 15 -10 18 -7 3 3 -2 9 -12 12 -14 6 -15 5 -6 -5z"/>
</g>
</svg>
